{"title":"Frozen.River.2008.DVDRIP-ZEKTORM","uid":4692742,"size":737753328,"categoryP":"video","categoryS":"movies","magnet":"?xt=urn:btih:b3069c130d929e24baacdbf45fc517c9c6262ccc&amp;dn=Frozen.River.2008.DVDRIP-ZEKTORM&amp;tr=udp%3A%2F%2Ftracker.openbittorrent.com%3A80&amp;tr=udp%3A%2F%2Fopen.demonii.com%3A1337&amp;tr=udp%3A%2F%2Ftracker.coppersurfer.tk%3A6969&amp;tr=udp%3A%2F%2Fexodus.desync.com%3A6969","seeders":1,"leechers":0,"uploader":"blowley","files":4,"time":1233448786,"description":"Title                            : Frozen River\nYear                             : 2008\nGenre                            : Crime | Drama\niMDB Rate                        : User Rating: 7.4/10   1,774 votes\niMDB URL                         : http://www.imdb.com/title/tt0978759/\nAwards                           : Nominated for 2 Oscars. Another 19 wins &amp; 16 nominations \n\nComplete name                    : Frozen.River.2008.DVDRIP-ZEKTORM.mp4\nFormat                           : MPEG-4\nFormat profile                   : Base Media\nCodec ID                         : isom\nFile size                        : 700 MiB\nDuration                         : 1h 36mn\nOverall bit rate                 : 1010 Kbps\nSubtitles                        : French (Format: VobSub)\nSource                           : DVD NTSC\nEncoded date                     : UTC 2009-01-30 22:43:44\n\nVideo\nFormat                           : AVC\nFormat/Info                      : Advanced Video Codec\nFormat profile                   : &lt;a class=&quot;__cf_email__&quot; href=&quot;/cdn-cgi/l/email-protection&quot; data-cfemail=&quot;c68eafa1ae868af2e8f7&quot;&gt;[email&amp;#160;protected]&lt;/a&gt;&lt;script cf-hash='f9e31' type=&quot;text/javascript&quot;&gt;\n/* &lt;![CDATA[ */!function(){try{var t=&quot;currentScript&quot;in document?document.currentScript:function(){for(var t=document.getElementsByTagName(&quot;script&quot;),e=t.length;e--;)if(t[e].getAttribute(&quot;cf-hash&quot;))return t[e]}();if(t&amp;&amp;t.previousSibling){var e,r,n,i,c=t.previousSibling,a=c.getAttribute(&quot;data-cfemail&quot;);if(a){for(e=&quot;&quot;,r=parseInt(a.substr(0,2),16),n=2;a.length-n;n+=2)i=parseInt(a.substr(n,2),16)^r,e+=String.fromCharCode(i);e=document.createTextNode(e),c.parentNode.replaceChild(e,c)}}}catch(u){}}();/* ]]&gt; */&lt;/script&gt;\nFormat settings, CABAC           : Yes\nFormat settings, ReFrames        : 10 frames\nCodec ID                         : avc1\nCodec ID/Info                    : Advanced Video Coding\nDuration                         : 1h 36mn\nBit rate mode                    : Variable\nBit rate                         : 936 Kbps\nMaximum bit rate                 : 4306 Kbps\nWidth                            : 720 pixels\nHeight                           : 480 pixels\nDisplay aspect ratio             : 16/9\nFrame rate mode                  : Constant\nFrame rate                       : 23.976 fps\nStandard                         : NTSC\nResolution                       : 24 bits\nColorimetry                      : 4:2:0\nScan type                        : Progressive\nBits/(Pixel*Frame)               : 0.113\nStream size                      : 649 MiB (93%)\nTitle                            : Video\nWriting library                  : x264 core 60 r900 a9af942\n\nAudio\nFormat                           : AAC\nFormat/Info                      : Advanced Audio Codec\nFormat version                   : Version 4\nFormat profile                   : LC\nFormat settings, SBR             : Yes\nFormat settings, PS              : No\nCodec ID                         : 40\nDuration                         : 1h 36mn\nBit rate mode                    : Variable\nBit rate                         : 72.0 Kbps\nMaximum bit rate                 : 103 Kbps\nChannel(s)                       : 2 channels\nChannel positions                : L R\nSampling rate                    : 48.0 KHz\nResolution                       : 16 bits\nStream size                      : 49.4 MiB (7%)\nTitle                            : English\nLanguage                         : English\n\nNotes                            : Convert to DVD with Nero\n","torrent":{"xt":"urn:btih:b3069c130d929e24baacdbf45fc517c9c6262ccc","amp;dn":"Frozen.River.2008.DVDRIP-ZEKTORM","amp;tr":["udp%3A%2F%2Ftracker.openbittorrent.com%3A80","udp%3A%2F%2Fopen.demonii.com%3A1337","udp%3A%2F%2Ftracker.coppersurfer.tk%3A6969","udp%3A%2F%2Fexodus.desync.com%3A6969"],"infoHash":"b3069c130d929e24baacdbf45fc517c9c6262ccc","infoHashBuffer":{"type":"Buffer","data":[179,6,156,19,13,146,158,36,186,172,219,244,95,197,23,201,198,38,44,204]},"announce":[],"urlList":[]}}